<?xml version="1.0" encoding="UTF-8" standalone="no"?>
<!-- Created with Inkscape (http://www.inkscape.org/) -->

<svg
   version="1.1"
   id="svg59"
   width="512"
   height="512"
   viewBox="0 0 512 511.99999"
   sodipodi:docname="bocconi.svg"
   inkscape:version="1.1.2 (b8e25be833, 2022-02-05)"
   xmlns:inkscape="http://www.inkscape.org/namespaces/inkscape"
   xmlns:sodipodi="http://sodipodi.sourceforge.net/DTD/sodipodi-0.dtd"
   xmlns="http://www.w3.org/2000/svg"
   xmlns:svg="http://www.w3.org/2000/svg">
  <defs
     id="defs63" />
  <sodipodi:namedview
     id="namedview61"
     pagecolor="#ffffff"
     bordercolor="#000000"
     borderopacity="0.25"
     inkscape:showpageshadow="2"
     inkscape:pageopacity="0.0"
     inkscape:pagecheckerboard="0"
     inkscape:deskcolor="#d1d1d1"
     showgrid="false"
     inkscape:pageshadow="2"
     width="512px"
     inkscape:zoom="1.5019531"
     inkscape:cx="256"
     inkscape:cy="256"
     inkscape:window-width="1920"
     inkscape:window-height="991"
     inkscape:window-x="-9"
     inkscape:window-y="-9"
     inkscape:window-maximized="1"
     inkscape:current-layer="g65" />
  <g
     inkscape:groupmode="layer"
     inkscape:label="Image"
     id="g65"
     transform="translate(1.2142298,0.37861678)">
    <path
       style="fill:#224993;fill-opacity:1;stroke-width:0.911591"
       d="m 110.0932,424.72249 c 0,-1.77552 0.60775,-1.82316 23.24804,-1.82316 H 156.5893 L 156.35914,255.39418 156.12896,87.889031 133.11122,87.645477 c -19.62451,-0.207689 -23.01771,-0.442819 -23.01771,-1.595306 0,-1.183997 9.64216,-1.351633 77.71326,-1.35096 44.99433,4.52e-4 81.93506,0.387772 87.74081,0.919993 20.34342,1.864867 37.72042,6.122799 52.10027,12.766332 33.30505,15.386964 49.34742,40.469124 47.44874,74.185744 -0.28531,5.06649 -1.16569,11.67311 -1.95642,14.68134 -2.12972,8.10225 -7.93846,19.25817 -13.57366,26.06864 -9.9282,11.9987 -29.85343,24.21163 -45.75365,28.04404 -7.7794,1.87508 -7.64038,2.38843 0.88583,3.2707 7.31318,0.7568 20.26521,5.19703 29.56115,10.13413 28.79309,15.29222 46.32594,34.55778 53.17258,58.42757 1.70418,5.94147 2.04938,9.37766 2.04589,20.36552 -0.004,7.61065 -0.5173,15.53846 -1.21371,18.68766 -9.14317,41.34462 -49.38205,68.99161 -106.76414,73.35466 -7.16069,0.54446 -47.66027,0.93663 -96.85673,0.93792 -83.94323,0.003 -84.55024,-0.008 -84.55024,-1.82097 z m 177.30477,-4.48373 c 22.89942,-7.55412 34.68194,-22.65983 39.16541,-50.21182 2.44893,-15.04913 3.54178,-39.12114 2.35206,-51.80803 -3.15841,-33.68023 -18.98975,-57.82055 -44.74025,-68.22158 -9.97286,-4.02824 -16.23503,-4.82574 -38.0268,-4.84276 l -20.28294,-0.017 v 88.95072 88.95065 l 27.57568,-0.34818 c 25.83759,-0.32619 27.9779,-0.48082 33.95684,-2.4532 z m -14.5855,-180.11775 c 28.48661,-5.98086 41.92695,-30.99591 40.32159,-75.04608 -0.80572,-22.10921 -6.86713,-39.86288 -18.64516,-54.61108 -5.92457,-7.41861 -9.73418,-10.796705 -17.34694,-15.382065 -9.43418,-5.682462 -15.00838,-6.892125 -34.18414,-7.418492 l -17.09237,-0.469158 v 77.149115 77.14914 l 20.28294,-0.017 c 14.28634,-0.008 22.16955,-0.41195 26.66408,-1.35558 z"
       id="path221"
       sodipodi:nodetypes="csccccsccsssssssscssssccssccccscccssssccccccs" />
  </g>
</svg>
