<?xml version="1.0" encoding="UTF-8" standalone="no"?>
<!-- Created with Inkscape (http://www.inkscape.org/) -->

<svg
   version="1.1"
   id="svg59"
   width="512"
   height="512"
   viewBox="0 0 512 511.99999"
   sodipodi:docname="bocconi.svg"
   inkscape:version="1.1.2 (b8e25be833, 2022-02-05)"
   xmlns:inkscape="http://www.inkscape.org/namespaces/inkscape"
   xmlns:sodipodi="http://sodipodi.sourceforge.net/DTD/sodipodi-0.dtd"
   xmlns="http://www.w3.org/2000/svg"
   xmlns:svg="http://www.w3.org/2000/svg">
  <defs
     id="defs63" />
  <sodipodi:namedview
     id="namedview61"
     pagecolor="#ffffff"
     bordercolor="#000000"
     borderopacity="0.25"
     inkscape:showpageshadow="2"
     inkscape:pageopacity="0.0"
     inkscape:pagecheckerboard="0"
     inkscape:deskcolor="#d1d1d1"
     showgrid="false"
     inkscape:pageshadow="2"
     width="512px"
     inkscape:zoom="1.5019531"
     inkscape:cx="256"
     inkscape:cy="256"
     inkscape:window-width="1920"
     inkscape:window-height="991"
     inkscape:window-x="-9"
     inkscape:window-y="-9"
     inkscape:window-maximized="1"
     inkscape:current-layer="g65" />
  <g
     inkscape:groupmode="layer"
     inkscape:label="Image"
     id="g65"
     transform="translate(1.2142298,0.37861678)">
    <path
       style="fill:#224993;fill-opacity:1;stroke-width:1.28"
       d="m 51.617731,493.06233 c 0,-2.49308 0.85336,-2.56 32.64344,-2.56 h 32.643399 l -0.3232,-235.19996 -0.3232,-235.200001 -32.319999,-0.342 c -27.55548,-0.2916 -32.32,-0.62176 -32.32,-2.24 0,-1.66252 13.53888,-1.89788 109.119999,-1.89696 63.17816,6.4e-4 115.04796,0.54448 123.2,1.2918 28.56492,2.61852 52.9646,8.59724 73.15588,17.92564 46.76476,21.6054 69.29048,56.8242 66.62448,104.166921 -0.40064,7.114 -1.6368,16.3906 -2.74708,20.6146 -2.9904,11.37664 -11.14668,27.04108 -19.05928,36.60388 -13.94052,16.84784 -41.91828,33.99644 -64.24436,39.37764 -10.92332,2.63288 -10.72812,3.35368 1.24384,4.59256 10.26872,1.0626 28.45512,7.29728 41.50788,14.22964 40.42944,21.47236 65.04792,48.52384 74.66148,82.04024 2.39296,8.34268 2.87764,13.16752 2.87276,28.596 -0.004,10.68636 -0.72636,21.81808 -1.70424,26.24 -12.83824,58.05348 -69.33908,96.8736 -149.91136,102.99992 -10.05456,0.76448 -66.92144,1.31516 -136,1.31696 -117.867719,0.003 -118.720039,-0.016 -118.720039,-2.55688 z m 248.959999,-6.29576 c 32.15392,-10.60704 48.69816,-31.81748 54.99356,-70.50424 3.43864,-21.13104 4.97312,-54.9314 3.3026,-72.74552 -4.4348,-47.2916 -26.6642,-81.18788 -62.82136,-95.79236 -14.00328,-5.6562 -22.7962,-6.776 -53.3948,-6.79988 l -28.48,-0.024 v 124.89888 124.8988 l 38.72,-0.48888 c 36.27948,-0.45804 39.28476,-0.67516 47.68,-3.4446 z m -20.48,-252.90984 c 39.99904,-8.39792 58.87112,-43.52244 56.617,-105.37488 -1.13136,-31.044321 -9.6424,-55.972881 -26.18036,-76.681361 -8.31892,-10.41676 -13.66812,-15.16004 -24.35748,-21.59852 -13.24688,-7.97892 -21.0738,-9.67748 -47.99916,-10.41656 l -24,-0.65876 V 127.45449 235.78237 l 28.48,-0.024 c 20.05992,-0.016 31.12904,-0.5784 37.44,-1.90344 z"
       id="path221"
       sodipodi:nodetypes="csccccsccsssssssscssssccssccccscccssssccccccs" />
  </g>
</svg>
