<?xml version="1.0" encoding="UTF-8" standalone="no"?>
<svg
   version="1.1"
   id="Layer_1"
   x="0px"
   y="0px"
   width="512"
   viewBox="0 0 512 512"
   enable-background="new 0 0 1165 400"
   xml:space="preserve"
   sodipodi:docname="77.svg"
   height="512"
   inkscape:version="1.1.2 (b8e25be833, 2022-02-05)"
   xmlns:inkscape="http://www.inkscape.org/namespaces/inkscape"
   xmlns:sodipodi="http://sodipodi.sourceforge.net/DTD/sodipodi-0.dtd"
   xmlns="http://www.w3.org/2000/svg"
   xmlns:svg="http://www.w3.org/2000/svg"><defs
   id="defs25" /><sodipodi:namedview
   id="namedview23"
   pagecolor="#ffffff"
   bordercolor="#666666"
   borderopacity="1.0"
   inkscape:pageshadow="2"
   inkscape:pageopacity="0.0"
   inkscape:pagecheckerboard="0"
   showgrid="false"
   width="512px"
   inkscape:zoom="1.0746781"
   inkscape:cx="287.0627"
   inkscape:cy="188.42851"
   inkscape:window-width="1920"
   inkscape:window-height="991"
   inkscape:window-x="-9"
   inkscape:window-y="-9"
   inkscape:window-maximized="1"
   inkscape:current-layer="Layer_1" />


<g
   id="g383"
   transform="matrix(0.64,0,0,0.64,49.044337,618.72078)"><path
     fill="#eb088a"
     opacity="1"
     stroke="none"
     d="m 456.45246,-657.70521 c -6.60696,6.46751 -13.25024,12.89843 -19.81219,19.41129 -9.22482,9.15576 -18.32996,18.4326 -27.59311,27.5491 -14.58044,14.34964 -29.2417,28.61728 -43.88403,42.90394 -12.73429,12.42488 -25.49076,24.82708 -38.2356,37.24116 -12.98352,12.64661 -25.95965,25.3008 -38.94876,37.94167 -11.79504,11.47885 -23.61337,22.93377 -35.40292,34.41827 -13.81848,13.46091 -27.60315,26.95657 -41.42856,40.41037 -10.72075,10.43265 -21.5188,20.78604 -32.21671,31.24197 -20.60984,20.14374 -55.01034,19.68259 -75.08328,0.009 -20.613556,-20.20316 -20.493126,-54.8349 0.16504,-75.10153 16.62534,-16.31021 33.25291,-32.61817 49.90887,-48.8971 12.36625,-12.08628 24.78386,-24.11999 37.17073,-36.18521 13.22236,-12.87898 26.43264,-25.77035 39.65349,-38.65089 12.62412,-12.2992 25.24274,-24.6041 37.88684,-36.88272 10.25357,-9.95719 20.5467,-19.87364 30.80689,-29.82402 1.17077,-1.13542 2.24225,-2.37328 4.2876,-4.552 -2.95218,0 -4.83811,0 -6.72403,0 -82.81563,-1.2e-4 -165.63221,0.22001 -248.446346,-0.13261 -25.327141,-0.10784 -46.8787616,-16.61019 -51.8540856,-43.04058 -5.212364,-27.6896 12.027578,-54.62261 40.4065526,-60.74981 3.194801,-0.68977 6.528923,-1.03257 9.798645,-1.03391 124.973264,-0.051 249.946554,-0.0519 374.919814,-0.003 3.94071,0.002 7.88114,0.59654 12.62879,0.95023 4.10989,1.00849 7.3778,2.12627 10.72082,2.93257 36.6976,8.85102 50.37558,50.86834 30.15149,79.63211 -5.28275,7.51343 -12.53061,13.64518 -18.87595,20.41149 z"
     id="path4" /><path
     fill="#687073"
     opacity="1"
     stroke="none"
     d="m 456.83015,-657.55085 c 5.96765,-6.92067 13.21551,-13.05242 18.49826,-20.56585 20.22409,-28.76377 6.54611,-70.78109 -30.15149,-79.63211 -3.34302,-0.8063 -6.61093,-1.92408 -10.2934,-2.99347 1.75617,-0.37164 3.89182,-0.88566 6.0279,-0.88746 51.15939,-0.043 102.33334,-0.75762 153.4722,0.26771 26.83093,0.53795 47.40844,14.41148 54.29162,39.27874 5.25592,18.98864 1.58277,36.84308 -12.4555,50.94141 -28.67267,28.79534 -58.01496,56.92432 -87.11444,85.29385 -6.91382,6.74035 -14.02454,13.2788 -20.92939,20.02807 -18.34442,17.93106 -36.5896,35.96363 -54.94116,53.88735 -25.49753,24.9031 -51.01993,49.781 -76.60068,74.59856 -18.16607,17.62415 -36.42276,35.15521 -54.68255,52.6825 -15.71152,15.08114 -43.82211,17.42169 -63.3357,5.35061 -28.82595,-17.83172 -33.52673,-57.569 -9.48925,-81.45395 22.0971,-21.95691 44.31534,-43.79275 66.57782,-65.58219 25.59027,-25.04656 51.24832,-50.02416 76.95263,-74.95368 17.09238,-16.57718 34.32312,-33.0117 51.47208,-49.53067 1.39917,-1.34778 2.64514,-2.85458 4.69489,-5.08446 -4.57032,-0.58647 -8.09324,-1.03853 -11.99384,-1.64496 z"
     id="path6" /></g>







</svg>
