<?xml version="1.0" encoding="UTF-8" standalone="no"?>
<svg
   version="1.1"
   id="Layer_1"
   x="0px"
   y="0px"
   units="px"
   width="512"
   viewBox="0 0 512 512"
   enable-background="new 0 0 316 64"
   xml:space="preserve"
   sodipodi:docname="hansonrobotics.svg"
   height="512"
   inkscape:version="1.1.2 (b8e25be833, 2022-02-05)"
   xmlns:inkscape="http://www.inkscape.org/namespaces/inkscape"
   xmlns:sodipodi="http://sodipodi.sourceforge.net/DTD/sodipodi-0.dtd"
   xmlns="http://www.w3.org/2000/svg"
   xmlns:svg="http://www.w3.org/2000/svg"><defs
   id="defs17" /><sodipodi:namedview
   id="namedview15"
   pagecolor="#ffffff"
   bordercolor="#666666"
   borderopacity="1.0"
   inkscape:pageshadow="2"
   inkscape:pageopacity="0.0"
   inkscape:pagecheckerboard="0"
   showgrid="false"
   inkscape:zoom="1.5585938"
   inkscape:cx="255.6792"
   inkscape:cy="256.3208"
   inkscape:window-width="1920"
   inkscape:window-height="991"
   inkscape:window-x="-9"
   inkscape:window-y="-9"
   inkscape:window-maximized="1"
   inkscape:current-layer="Layer_1" />

<g
   id="g467"
   transform="matrix(6.51605,0,0,6.51605,-17.674086,40.970302)"><path
     fill="#d12127"
     opacity="1"
     stroke="none"
     d="m 13.092978,25.419697 c 18.990339,-0.423742 37.908338,-0.422774 57.284021,-0.423283 0.50592,1.718874 0.554153,3.439224 0.530037,5.584099 -18.990349,0.423548 -37.908348,0.422573 -57.284038,0.423069 -0.505913,-1.718742 -0.55414,-3.438957 -0.53002,-5.583885 z"
     id="path10" /><path
     fill="#231f20"
     opacity="1"
     stroke="none"
     d="m 36.561958,4.089429 c 0.382733,1.844471 0.300373,3.614163 0.193055,5.920118 -7.836356,0 -15.255492,0 -23.132727,0.0089 -0.4581,-1.795651 -0.4581,-3.600175 -0.4581,-6.00377 7.588948,0 15.260815,0 23.397772,0.074778 z"
     id="path12" /><path
     fill="#231f20"
     opacity="1"
     stroke="none"
     d="M 70.910461,9.581648 C 63.212189,10.027032 55.588585,10.027032 47.401867,10.027032 47.248055,8.156951 47.119064,6.58867 46.98138,4.592287 54.848663,4.164184 62.72464,4.164184 70.985138,4.164184 c 0,1.782723 0,3.377402 -0.07468,5.417464 z"
     id="path14" /><path
     fill="#231f20"
     opacity="1"
     stroke="none"
     d="m 13.089583,14.400717 c 7.707628,-0.427746 15.340631,-0.427746 23.428247,-0.427746 0,2.045191 0,3.714807 0,6.036577 -7.563332,0 -15.000387,0 -22.895544,0.0089 -0.507845,-1.724068 -0.557587,-3.45702 -0.532703,-5.617716 z"
     id="path16" /><path
     fill="#231f20"
     opacity="1"
     stroke="none"
     d="m 70.910416,19.599304 c -7.707631,0.42775 -15.340634,0.42775 -23.428254,0.42775 0,-2.045212 0,-3.714829 0,-6.036605 7.563344,0 15.000401,0 22.895562,-0.0089 0.507835,1.724075 0.557579,3.457034 0.532692,5.617739 z"
     id="path18" /><path
     fill="#231f20"
     opacity="1"
     stroke="none"
     d="m 13.089582,35.400696 c 7.707629,-0.427746 15.340634,-0.427746 23.428252,-0.427746 0,2.045208 0,3.714825 0,6.036594 -7.563336,0 -15.000391,0 -22.895548,0.0089 -0.507845,-1.724072 -0.557587,-3.457028 -0.532704,-5.617733 z"
     id="path20" /><path
     fill="#231f20"
     opacity="1"
     stroke="none"
     d="m 70.910416,40.599304 c -7.707631,0.427746 -15.340634,0.427746 -23.428254,0.427746 0,-2.048382 0,-3.722721 0,-6.036594 7.563347,0 15.000405,0 22.895562,-0.0089 0.507835,1.724072 0.557579,3.457032 0.532692,5.617737 z"
     id="path22" /><path
     fill="#231f20"
     opacity="1"
     stroke="none"
     d="m 13.089582,46.400696 c 7.707629,-0.427746 15.340634,-0.427746 23.428252,-0.427746 0,2.045208 0,3.714825 0,6.036594 -7.563336,0 -15.000391,0 -22.895548,0.0089 -0.507844,-1.724072 -0.557586,-3.457028 -0.532704,-5.617733 z"
     id="path24" /><path
     fill="#231f20"
     opacity="1"
     stroke="none"
     d="m 70.910416,51.599304 c -7.707631,0.427746 -15.340634,0.427746 -23.428254,0.427746 0,-2.048382 0,-3.722721 0,-6.036594 7.563347,0 15.000405,0 22.895562,-0.0089 0.507843,1.724072 0.557586,3.457032 0.532692,5.617737 z"
     id="path26" /><path
     fill="#231f20"
     opacity="1"
     stroke="none"
     d="m 13.089533,56.418335 c 7.698461,-0.445385 15.32225,-0.445385 23.5086,-0.445385 0.153812,1.870098 0.282803,3.438381 0.420487,5.434765 -7.867287,0.428104 -15.743269,0.428104 -24.003763,0.428104 0,-1.782734 0,-3.377414 0.07468,-5.417484 z"
     id="path28" /><path
     fill="#231f20"
     opacity="1"
     stroke="none"
     d="m 47.438042,61.910568 c -0.382576,-1.847854 -0.300061,-3.620937 -0.193058,-5.920112 7.836357,0 15.2555,0 23.13274,-0.0089 0.458099,1.795643 0.458099,3.600167 0.458099,6.003781 -7.588959,0 -15.260822,0 -23.397781,-0.07478 z"
     id="path30" /></g>
</svg>
