<?xml version="1.0" encoding="UTF-8" standalone="no"?>
<svg
   version="1.1"
   width="512"
   height="512"
   viewBox="0 0 512 512"
   id="svg176"
   sodipodi:docname="polyu.svg"
   inkscape:version="1.1.2 (b8e25be833, 2022-02-05)"
   xmlns:inkscape="http://www.inkscape.org/namespaces/inkscape"
   xmlns:sodipodi="http://sodipodi.sourceforge.net/DTD/sodipodi-0.dtd"
   xmlns="http://www.w3.org/2000/svg"
   xmlns:svg="http://www.w3.org/2000/svg">
  <sodipodi:namedview
     id="namedview178"
     pagecolor="#ffffff"
     bordercolor="#666666"
     borderopacity="1.0"
     inkscape:pageshadow="2"
     inkscape:pageopacity="0.0"
     inkscape:pagecheckerboard="0"
     inkscape:document-units="px"
     showgrid="false"
     units="px"
     inkscape:zoom="1.5039062"
     inkscape:cx="256"
     inkscape:cy="202.80519"
     inkscape:window-width="1920"
     inkscape:window-height="974"
     inkscape:window-x="-11"
     inkscape:window-y="-11"
     inkscape:window-maximized="1"
     inkscape:current-layer="svg176" />
  <defs
     id="defs5">
    <clipPath
       id="clip_0">
      <path
         transform="matrix(1,0,0,-1,0,841.89)"
         d="M 0,841.89 H 1190.55 V 0 H 0 Z"
         id="path2" />
    </clipPath>
  </defs>
  <g
     id="layer_1"
     data-name="Layer 1"
     transform="matrix(1.296,0,0,1.296,7.1680046,7.1680153)">
    <g
       clip-path="url(#clip_0)"
       id="g173">
      <g
         id="g440"
         transform="matrix(3,0,0,3,-872.47051,-967.03149)">
        <path
           transform="matrix(1,0,0,-1,311.978,364.4237)"
           d="m 0,0 c 4.389,0.939 8.98,0.547 13.166,-1.156 l 23.652,23.648 c 3.287,3.287 8.751,3.172 12.041,-0.119 3.286,-3.291 3.286,-8.791 0,-12.078 l -6.067,-6.07 -9.092,9.097 -7.209,-7.211 25.488,-25.486 7.21,7.203 -9.095,9.09 6.001,5.996 0.043,0.037 c 7.329,7.338 7.329,19.223 0,26.561 C 48.797,36.85 36.884,36.891 29.551,29.547 29.551,29.547 -0.02,-0.006 0,0 m 64.766,20.871 c 0.935,-4.377 0.547,-8.973 -1.161,-13.152 l 23.643,-23.666 c 3.291,-3.291 3.177,-8.745 -0.115,-12.024 -3.287,-3.303 -8.798,-3.293 -12.084,0 l -6.067,6.063 9.099,9.097 -7.206,7.2 -25.499,-25.489 7.212,-7.217 9.095,9.098 5.995,-5.994 0.035,-0.036 c 7.336,-7.345 19.225,-7.345 26.557,0 7.332,7.327 7.373,19.247 0.052,26.581 0,0 -29.574,29.563 -29.556,29.539 m 20.908,-64.715 c -4.379,-0.932 -8.967,-0.547 -13.168,1.162 l -23.64,-23.651 c -3.297,-3.285 -8.758,-3.173 -12.042,0.122 -3.295,3.287 -3.295,8.791 0,12.082 l 6.072,6.066 9.086,-9.104 7.216,7.219 -25.496,25.487 -7.206,-7.207 9.088,-9.088 -5.992,-6.004 -0.041,-0.026 c -7.336,-7.338 -7.336,-19.234 0,-26.566 7.333,-7.338 19.246,-7.379 26.578,-0.037 0,0 29.569,29.564 29.545,29.545 M 20.93,-64.733 c -0.926,4.387 -0.542,8.969 1.168,13.17 l -23.653,23.641 c -3.289,3.298 -3.172,8.76 0.119,12.045 3.288,3.289 8.799,3.289 12.077,0 l 6.072,-6.068 -9.1,-9.095 7.207,-7.214 25.495,25.494 -7.205,7.205 -9.089,-9.084 -6.005,5.996 -0.036,0.038 c -7.331,7.339 -19.224,7.339 -26.56,0 -7.328,-7.334 -7.379,-19.249 -0.038,-26.583 0,0 29.562,-29.568 29.548,-29.545"
           fill="#a02337"
           fill-rule="evenodd"
           id="path7" />
      </g>
    </g>
  </g>
</svg>
